<?xml version="1.0" encoding="UTF-8"?>
<svg version="1.1" xmlns="http://www.w3.org/2000/svg" width="512" height="512">
<path d="M0 0 C-0.32613281 1.27230469 -0.65226563 2.54460938 -0.98828125 3.85546875 C-8.1940575 32.54896355 -11.23076201 62.62429726 -6 92 C-5.77401123 93.27834717 -5.77401123 93.27834717 -5.54345703 94.58251953 C2.45977658 138.11980287 22.29970537 175.01716432 50 209 C50.33620361 208.26587891 50.67240723 207.53175781 51.01879883 206.77539062 C60.32750173 186.5873091 70.10025887 168.80904742 86 153 C86.75925781 152.24074219 87.51851563 151.48148438 88.30078125 150.69921875 C97.68928578 141.85995031 111.77798264 132.07205546 125 131 C124.5875 132.216875 124.175 133.43375 123.75 134.6875 C123.16540242 136.45791637 122.58221212 138.22879772 122 140 C121.66355469 141.00160156 121.32710938 142.00320312 120.98046875 143.03515625 C120.63628906 144.09605469 120.29210937 145.15695313 119.9375 146.25 C119.61652344 147.22453125 119.29554688 148.1990625 118.96484375 149.203125 C116.36258327 159.44359946 115.63631555 169.59022234 115.625 180.125 C115.60050781 181.27097656 115.57601563 182.41695312 115.55078125 183.59765625 C115.4766548 206.74981892 121.19650161 229.84159165 125.9375 252.375 C146.24856953 349.29710397 146.24856953 349.29710397 135 391 C134.80212891 391.74314453 134.60425781 392.48628906 134.40039062 393.25195312 C123.04083385 434.68308737 95.70007829 470.09227331 58.50708008 491.53344727 C35.09980702 504.51793959 9.30986981 511.39169692 -17.42773438 511.31567383 C-19.7335588 511.31252247 -22.03808362 511.33604239 -24.34375 511.36132812 C-34.85924684 511.40612854 -44.72340565 510.19231292 -55 508 C-56.32692871 507.71781616 -56.32692871 507.71781616 -57.68066406 507.42993164 C-81.71485942 501.9115468 -104.5949386 490.41215666 -123 474 C-124.30710937 472.8553125 -124.30710937 472.8553125 -125.640625 471.6875 C-133.23961949 464.95306177 -140.23441917 458.10124102 -146.375 450 C-146.93590332 449.26015869 -147.49680664 448.52031738 -148.07470703 447.75805664 C-174.99436849 411.70727683 -183.92198395 366.51159993 -177.875 322.25 C-175.18889434 304.73277727 -169.70250881 287.85439935 -164.40136719 270.99462891 C-158.75342824 252.95512145 -153.3043479 234.81247146 -151 216 C-150.9064624 215.25363281 -150.8129248 214.50726563 -150.71655273 213.73828125 C-149.93236004 206.82458237 -149.80805048 199.95361613 -149.8125 193 C-149.81258057 191.81462646 -149.81266113 190.62925293 -149.81274414 189.40795898 C-149.86608362 181.13023269 -150.3935225 173.05496849 -151.48828125 164.85546875 C-152.18786495 159.58455947 -152.60502164 154.30102532 -153 149 C-129.88313074 157.40247943 -111.99572089 185.49011497 -101.6875 206.375 C-95.10772559 221.42265801 -91.42166588 237.38460278 -90.24609375 253.72265625 C-90.06410142 256.16181977 -90.06410142 256.16181977 -89 259 C-83.3414367 241.98111498 -80.82914157 225.68562544 -80.8671875 207.70703125 C-80.86575241 206.16156868 -80.86575241 206.16156868 -80.86428833 204.58488464 C-80.86361315 202.42109109 -80.86542077 200.25729543 -80.86962891 198.09350586 C-80.87495878 194.83767985 -80.86967534 191.58199352 -80.86328125 188.32617188 C-80.86025299 178.55332774 -80.96485052 168.83272353 -81.62574768 159.08102417 C-84.69598235 113.00058761 -78.78724044 69.0454455 -47.46484375 33.08984375 C-13.85046701 -4.61682234 -13.85046701 -4.61682234 0 0 Z " fill="#FFB446" transform="translate(276,1)"/>
<path d="M0 0 C0.66 0 1.32 0 2 0 C2.35191406 1.13695312 2.70382812 2.27390625 3.06640625 3.4453125 C9.11829847 22.55764567 18.12517911 38.56405883 31 54 C31.82242188 54.99644531 32.64484375 55.99289063 33.4921875 57.01953125 C39.45587501 64.19262257 45.70282442 71.05943713 52.078125 77.8671875 C54.80925228 80.78601521 57.47884275 83.74741056 60.08203125 86.78125 C61.66505565 88.61252874 63.26930224 90.41806414 64.88671875 92.21875 C73.01059074 101.33037894 80.22919578 110.84505359 87 121 C87.38526855 121.57459961 87.77053711 122.14919922 88.16748047 122.74121094 C100.57202283 141.44067951 109.22067115 162.89134338 113 185 C113.17950195 186.04994141 113.35900391 187.09988281 113.54394531 188.18164062 C115.05101006 198.05920531 115.30890514 207.75176242 115.26074219 217.72705078 C115.24992909 220.39247936 115.26075204 223.05724673 115.2734375 225.72265625 C115.2721171 227.44791813 115.26955719 229.1731796 115.265625 230.8984375 C115.26967346 231.67988129 115.27372192 232.46132507 115.27789307 233.26644897 C115.23204914 238.73293464 114.37097485 243.71585599 113 249 C112.7265551 250.06664886 112.7265551 250.06664886 112.44758606 251.15484619 C106.58511659 273.6258527 96.48137387 291.77994876 81 309 C80.14535156 309.98033203 80.14535156 309.98033203 79.2734375 310.98046875 C65.88024166 325.43825195 46.1068144 335.80136881 27 340 C25.98421875 340.26039063 24.9684375 340.52078125 23.921875 340.7890625 C14.76243811 342.874296 5.89025588 343.29181662 -3.5 343.3125 C-4.70495117 343.31781738 -5.90990234 343.32313477 -7.15136719 343.32861328 C-13.4778549 343.27837508 -18.95774964 342.87540186 -25 341 C-26.00836914 340.70428101 -26.00836914 340.70428101 -27.03710938 340.40258789 C-55.23911903 332.02971014 -78.17836665 316.82325811 -93 291 C-93.49113281 290.14792969 -93.98226562 289.29585938 -94.48828125 288.41796875 C-106.10927627 266.72304615 -109.35213835 238.60677238 -102.3125 214.97265625 C-101.88092642 213.64649419 -101.44322629 212.32231313 -101 211 C-100.76925781 210.28183105 -100.53851563 209.56366211 -100.30078125 208.82373047 C-90.02798819 177.30555123 -72.38835179 148.65979022 -53 122 C-51.32926233 119.66954629 -49.6646386 117.33481778 -48 115 C-40.23568577 119.17255469 -32.5959194 123.5290081 -25 128 C-25.04350586 126.61337158 -25.04350586 126.61337158 -25.08789062 125.19873047 C-25.281778 113.97680617 -24.14126548 103.21489285 -22.5 92.125 C-22.30275833 90.76353851 -22.30275833 90.76353851 -22.10153198 89.37457275 C-17.66292218 58.98851935 -10.22795263 28.96861117 0 0 Z " fill="#FFDB64" transform="translate(255,169)"/>
<path d="M0 0 C16.24701569 13.33807117 27.30476269 31.59510378 37 50 C37.33741211 50.63534668 37.67482422 51.27069336 38.02246094 51.92529297 C48.41627665 71.80536683 55.69376208 94.4533942 58.625 116.6875 C58.74617187 117.55955078 58.86734375 118.43160156 58.9921875 119.33007812 C59.34275297 121.88501449 59.67241486 124.44203164 60 127 C60.09643799 127.67047363 60.19287598 128.34094727 60.29223633 129.03173828 C62.80515857 148.08019564 64.35176728 171.71535427 55 189 C54.29810547 190.39992188 54.29810547 190.39992188 53.58203125 191.828125 C52.19541984 194.36053576 50.68799314 196.65884401 49 199 C48.35417969 199.90105469 47.70835937 200.80210937 47.04296875 201.73046875 C35.96553197 216.20099428 19.13555744 226.27966638 1 229 C-18.1457045 230.31533625 -36.28173386 226.83118454 -51.3671875 214.31640625 C-54.38312378 211.67215226 -57.20243393 208.87363282 -60 206 C-60.68835938 205.3090625 -61.37671875 204.618125 -62.0859375 203.90625 C-76.34874653 188.70919583 -79.72311136 169.73807094 -79.38671875 149.70703125 C-78.96516177 139.30123006 -76.2093709 129.85087108 -73 120 C-72.77751587 119.31671631 -72.55503174 118.63343262 -72.32580566 117.92944336 C-70.02989025 110.89328605 -67.70913716 103.86560907 -65.31542969 96.86206055 C-61.25037271 84.96179754 -57.21852049 73.08457676 -55.25 60.625 C-55.06244141 59.50351562 -55.06244141 59.50351562 -54.87109375 58.359375 C-54.57354771 56.57409874 -54.28560975 54.78722467 -54 53 C-40.40385999 55.14035836 -27.18553843 66.42220914 -19 77 C-14.7396938 75.51980453 -13.1330774 72.51403932 -11.0625 68.75 C-10.71622559 68.12883301 -10.36995117 67.50766602 -10.01318359 66.86767578 C-1.2341876 50.63859563 0.32026152 34.79142734 0.125 16.75 C0.114943 15.11849512 0.10582199 13.48698419 0.09765625 11.85546875 C0.07587452 7.9034933 0.04149726 3.95181558 0 0 Z " fill="#FFFEFE" transform="translate(265,283)"/>
<path d="M0 0 C-1 2 -1 2 -3.14453125 2.88671875 C-4.02496094 3.15097656 -4.90539062 3.41523438 -5.8125 3.6875 C-6.68519531 3.95949219 -7.55789063 4.23148437 -8.45703125 4.51171875 C-11.06873834 5.01319861 -12.51716384 4.86233704 -15 4 C-13.06767179 3.13419713 -11.12892806 2.28270059 -9.1875 1.4375 C-8.10855469 0.96183594 -7.02960938 0.48617188 -5.91796875 -0.00390625 C-3 -1 -3 -1 0 0 Z " fill="#FFDE73" transform="translate(290,505)"/>
</svg>
