<?xml version="1.0" encoding="UTF-8"?>
<svg version="1.1" xmlns="http://www.w3.org/2000/svg" width="40" height="40">
<path d="M0 0 C5.00695559 2.85244743 8.48747492 7.03345439 10.6875 12.375 C11.62868685 19.31006101 11.32295046 25.0313217 7.1171875 30.7578125 C3.47696779 34.87543807 -0.53572316 37.99815171 -6.046875 38.74609375 C-13.1870219 38.90332496 -17.87836161 38.16596742 -23.3125 33.375 C-27.64854642 28.81074061 -29.40094833 24.80932635 -29.6875 18.5625 C-29.54930237 13.39544405 -28.49545461 9.49256178 -25.3125 5.375 C-18.05780836 -1.32500697 -9.45687086 -4.33290091 0 0 Z " fill="#F7B402" transform="translate(29.3125,1.625)"/>
<path d="M0 0 C5.00695559 2.85244743 8.48747492 7.03345439 10.6875 12.375 C11.62868685 19.31006101 11.32295046 25.0313217 7.1171875 30.7578125 C3.47696779 34.87543807 -0.53572316 37.99815171 -6.046875 38.74609375 C-13.1870219 38.90332496 -17.87836161 38.16596742 -23.3125 33.375 C-27.64854642 28.81074061 -29.40094833 24.80932635 -29.6875 18.5625 C-29.54930237 13.39544405 -28.49545461 9.49256178 -25.3125 5.375 C-18.05780836 -1.32500697 -9.45687086 -4.33290091 0 0 Z M-21.625 8.9375 C-24.89477458 13.66050773 -24.9295169 17.72625374 -24.3125 23.375 C-21.98326821 28.21263525 -19.13102225 31.01119663 -14.3125 33.375 C-9.93675288 34.07417683 -6.28520585 33.67429411 -2.0625 32.375 C2.17062096 29.29636657 5.06757242 25.50387979 6.1015625 20.28515625 C6.29842663 15.62305561 5.22642739 12.2271657 2.6875 8.375 C-2.00491086 4.14038532 -4.8154599 3.0708694 -10.99609375 3.16015625 C-15.72345471 3.598613 -18.50433894 5.47947018 -21.625 8.9375 Z " fill="#FEDF06" transform="translate(29.3125,1.625)"/>
<path d="M0 0 C0.66 0 1.32 0 2 0 C2.185625 0.78375 2.37125 1.5675 2.5625 2.375 C3.83961627 5.39376342 3.83961627 5.39376342 7.625 6.3125 C8.73875 6.539375 9.8525 6.76625 11 7 C9.125 10.875 9.125 10.875 8 12 C7.63239269 14.32817964 7.29758419 16.6618385 7 19 C5.783125 18.814375 4.56625 18.62875 3.3125 18.4375 C-0.02977939 18.01006818 -2.71968417 18.07741117 -6 19 C-5.9071875 17.3603125 -5.9071875 17.3603125 -5.8125 15.6875 C-5.62756763 12.08247389 -5.62756763 12.08247389 -7.5 10.1875 C-7.995 9.795625 -8.49 9.40375 -9 9 C-9 8.34 -9 7.68 -9 7 C-7.6078125 6.6596875 -7.6078125 6.6596875 -6.1875 6.3125 C-2.45530287 4.77571295 -1.8275845 3.47241055 0 0 Z " fill="#FED702" transform="translate(19,9)"/>
<path d="M0 0 C3.26070442 1.77140884 3.26070442 1.77140884 4.4375 4.125 C3.674375 3.815625 2.91125 3.50625 2.125 3.1875 C-2.51328152 1.3537608 -6.31814067 1.00263616 -11.25 1.0625 C-11.95189453 1.06701172 -12.65378906 1.07152344 -13.37695312 1.07617188 C-15.10550538 1.08793073 -16.83401365 1.10586546 -18.5625 1.125 C-18.82804687 1.72828125 -19.09359375 2.3315625 -19.3671875 2.953125 C-21.16176806 6.21386614 -23.64655423 7.84295549 -26.5625 10.125 C-26.5625 6.04907179 -25.39342472 5.02669784 -22.5625 2.125 C-15.59900522 -2.84892484 -7.76273776 -3.69389668 0 0 Z " fill="#FDEC0F" transform="translate(29.5625,1.875)"/>
</svg>
