<svg width="16" height="16" viewBox="0 0 16 16" fill="none" xmlns="http://www.w3.org/2000/svg">
<path d="M3.71324 4.49268H2.93383C2.5204 4.49268 2.12391 4.65691 1.83157 4.94925C1.53923 5.24158 1.375 5.63808 1.375 6.0515V13.0662C1.375 13.4797 1.53923 13.8762 1.83157 14.1685C2.12391 14.4608 2.5204 14.6251 2.93383 14.6251H9.94856C10.362 14.6251 10.7585 14.4608 11.0508 14.1685C11.3432 13.8762 11.5074 13.4797 11.5074 13.0662V12.2868" stroke="white" stroke-linecap="round" stroke-linejoin="round"/>
<path d="M10.7279 2.93385L13.0661 5.2721M14.1456 4.16922C14.4526 3.86225 14.625 3.44591 14.625 3.01179C14.625 2.57767 14.4526 2.16133 14.1456 1.85436C13.8386 1.54739 13.4223 1.37494 12.9882 1.37494C12.5541 1.37494 12.1377 1.54739 11.8307 1.85436L5.27197 8.38975V10.728H7.61022L14.1456 4.16922Z" stroke="white" stroke-linecap="round" stroke-linejoin="round"/>
</svg>
