<svg width="18" height="18" viewBox="0 0 18 18" fill="none" xmlns="http://www.w3.org/2000/svg">
<path d="M7.29981 3.2625V3.475H10.6998V3.2625C10.6998 2.81163 10.5207 2.37923 10.2019 2.06042C9.88308 1.74161 9.45068 1.5625 8.99981 1.5625C8.54894 1.5625 8.11654 1.74161 7.79773 2.06042C7.47892 2.37923 7.29981 2.81163 7.29981 3.2625ZM6.23731 3.475V3.2625C6.23731 2.52984 6.52836 1.82719 7.04643 1.30912C7.5645 0.791049 8.26715 0.5 8.99981 0.5C9.73247 0.5 10.4351 0.791049 10.9532 1.30912C11.4713 1.82719 11.7623 2.52984 11.7623 3.2625V3.475H16.5436C16.6845 3.475 16.8196 3.53097 16.9192 3.6306C17.0189 3.73023 17.0748 3.86536 17.0748 4.00625C17.0748 4.14715 17.0189 4.28228 16.9192 4.38191C16.8196 4.48153 16.6845 4.53751 16.5436 4.53751H15.3038L14.4538 14.6763C14.3893 15.4463 14.0378 16.1638 13.469 16.6868C12.9003 17.2098 12.1559 17.5001 11.3832 17.5H6.61641C5.84384 17.5 5.09949 17.2097 4.53085 16.6867C3.96221 16.1637 3.61078 15.4462 3.54621 14.6763L2.69621 4.53751H1.45606C1.31516 4.53751 1.18003 4.48153 1.0804 4.38191C0.980776 4.28228 0.924805 4.14715 0.924805 4.00625C0.924805 3.86536 0.980776 3.73023 1.0804 3.6306C1.18003 3.53097 1.31516 3.475 1.45606 3.475H6.23731ZM4.60488 14.5875C4.64719 15.0919 4.87743 15.562 5.24999 15.9046C5.62255 16.2473 6.11024 16.4375 6.61641 16.4375H11.3832C11.8895 16.4376 12.3773 16.2474 12.7499 15.9048C13.1226 15.5621 13.3529 15.092 13.3952 14.5875L14.2375 4.53751H3.76211L4.60488 14.5875ZM7.93731 7.40626C7.93731 7.33649 7.92357 7.26741 7.89687 7.20296C7.87018 7.1385 7.83104 7.07994 7.78171 7.03061C7.73238 6.98128 7.67382 6.94214 7.60936 6.91545C7.54491 6.88875 7.47583 6.87501 7.40606 6.87501C7.3363 6.87501 7.26722 6.88875 7.20276 6.91545C7.13831 6.94214 7.07974 6.98128 7.03041 7.03061C6.98108 7.07994 6.94195 7.1385 6.91525 7.20296C6.88855 7.26741 6.87481 7.33649 6.87481 7.40626V13.5688C6.87481 13.6385 6.88855 13.7076 6.91525 13.7721C6.94195 13.8365 6.98108 13.8951 7.03041 13.9444C7.07974 13.9937 7.13831 14.0329 7.20276 14.0596C7.26722 14.0863 7.3363 14.1 7.40606 14.1C7.47583 14.1 7.54491 14.0863 7.60936 14.0596C7.67382 14.0329 7.73238 13.9937 7.78171 13.9444C7.83104 13.8951 7.87018 13.8365 7.89687 13.7721C7.92357 13.7076 7.93731 13.6385 7.93731 13.5688V7.40626ZM10.5936 6.87501C10.8868 6.87501 11.1248 7.11301 11.1248 7.40626V13.5688C11.1248 13.7097 11.0688 13.8448 10.9692 13.9444C10.8696 14.044 10.7345 14.1 10.5936 14.1C10.4527 14.1 10.3175 14.044 10.2179 13.9444C10.1183 13.8448 10.0623 13.7097 10.0623 13.5688V7.40626C10.0623 7.11301 10.3003 6.87501 10.5936 6.87501Z" fill="white"/>
</svg>
